<?xml version="1.0" ?><!DOCTYPE svg  PUBLIC '-//W3C//DTD SVG 1.1//EN'  'http://www.w3.org/Graphics/SVG/1.1/DTD/svg11.dtd'><svg enable-background="new 0 0 512 512" height="512px" version="1.1" viewBox="0 0 512 512" width="512px" xml:space="preserve" xmlns="http://www.w3.org/2000/svg" xmlns:xlink="http://www.w3.org/1999/xlink"><g id="Layer_1"/><g id="Layer_2"><path d="M464.622,96.586l-13.031-15.172l-65.237,56.037c-5.211-4.158-10.742-8.222-16.525-12.214   c-7.056-3.871-14.114-7.742-21.174-11.613c-43.273-19.418-83.954-21.198-119.837-13.287c-35.655,7.861-70.515,25.662-97,63.861   c-3.574,6.515-7.146,13.03-10.72,19.545c-5.323,13.017-8.685,25.725-10.372,38.038L50.957,392h210.102v-0.119   c38.94,0.479,73.01-15.746,101.416-51.385c3.127-5.701,6.254-11.402,9.38-17.103c7.641-19.827,9.366-35.672,7.793-51.873   c-4.374-45.062-40.706-100.275-101.876-103.019c-32.011-1.436-68.578,11.568-83.588,50.031c-6.63,16.991-5.825,35.914-1.264,49.628   c4.471,13.437,12.659,29.787,28.779,41.207c18.678,13.235,41.521,12.369,56.813,3.616c26.938-15.421,27.912-51.974,7.018-69.778   C277,236,264,249,272.341,256.631c14.664,10.907,9.54,36.151-7.844,42.311c-24.536,8.692-46.85-16.132-53.292-36.114   c-3.947-12.244-4.068-27.381,2.616-41.469c10.169-21.436,29.106-29.531,43.85-32.627c16.512-3.467,35.993-2.502,55.984,8.988   c19.75,11.352,30.204,27.144,37.671,42.378c8.036,16.389,11.061,33.481,9.298,50.652c-4.618,45.001-43.481,71.862-73.46,78.891   c-33.433,7.84-76.774,1.873-110.354-27.683c-29.417-25.894-45.438-58.949-48.23-92.664c-0.563-6.813-0.539-13.809,0.175-20.919   l0.154-0.447l-0.099-0.038c1.194-11.392,4.165-23.072,9.388-34.765c9.236-20.674,22.567-36.459,38.215-48.429   c28.012-21.428,60.664-31.283,97.996-29.945c34.915,1.25,76.864,14.675,112.087,47.702c0.086-0.085,0.171-0.174,0.257-0.26   l0.633,0.737L464.622,96.586z M117.006,285.851c10.356,30.12,29.757,59.482,62.746,82.615c2.755,1.511,5.512,3.022,8.267,4.534   H79.043l34.282-99.732C114.365,277.542,115.593,281.74,117.006,285.851z"/></g></svg>